<svg width="900" height="620" viewBox="0 0 900 620" xmlns="http://www.w3.org/2000/svg" font-family="'Fira Code', 'Courier New', monospace">
  <rect width="900" height="620" fill="#0d1117" rx="12"/>

  <!-- Header -->
  <text x="28" y="48" font-size="22" font-weight="700" fill="#e6edf3">&#x2197; Open Source Contributions</text>
  <text x="28" y="74" font-size="13" fill="#6e7681">// 6 merged PRs  ·  Apache · OWASP · Linux Foundation · Databricks · Equinor · VictoriaMetrics</text>

  <!-- Card 1: Apache -->
  <a href="https://github.com/apache/arrow-adbc/pull/4084" target="_blank">
    <rect x="18" y="92" width="418" height="148" rx="8" fill="#161b22" stroke="#30363d" stroke-width="1"/>
    <rect x="18" y="92" width="4" height="148" rx="2" fill="#e24b4a"/>
    <text x="38" y="118" font-size="10" font-weight="600" fill="#6e7681" letter-spacing="1">APACHE SOFTWARE FOUNDATION</text>
    <rect x="360" y="103" width="68" height="18" rx="9" fill="#1a3a2a"/>
    <text x="394" y="116" font-size="10" font-weight="600" fill="#3fb950" text-anchor="middle">MERGED</text>
    <text x="38" y="144" font-size="14" font-weight="600" fill="#e6edf3">Arrow ADBC — fix driver config dir</text>
    <text x="38" y="163" font-size="14" font-weight="600" fill="#e6edf3">double-nesting across platforms</text>
    <rect x="38" y="176" width="40" height="20" rx="10" fill="#1e2a3a"/>
    <text x="58" y="190" font-size="11" fill="#7fb3e0" text-anchor="middle">C++</text>
    <rect x="84" y="176" width="36" height="20" rx="10" fill="#1e2a3a"/>
    <text x="102" y="190" font-size="11" fill="#9fa9f0" text-anchor="middle">Go</text>
    <rect x="126" y="176" width="62" height="20" rx="10" fill="#21262d"/>
    <text x="157" y="190" font-size="11" fill="#8b949e" text-anchor="middle">Bug Fix</text>
  </a>

  <!-- Card 2: OpenWallet -->
  <a href="https://github.com/openwallet-foundation-labs/eudiplo/pull/551" target="_blank">
    <rect x="464" y="92" width="418" height="148" rx="8" fill="#161b22" stroke="#30363d" stroke-width="1"/>
    <rect x="464" y="92" width="4" height="148" rx="2" fill="#7f77dd"/>
    <text x="484" y="118" font-size="10" font-weight="600" fill="#6e7681" letter-spacing="1">OPENWALLET FOUNDATION · LINUX FOUNDATION</text>
    <rect x="806" y="103" width="68" height="18" rx="9" fill="#1a3a2a"/>
    <text x="840" y="116" font-size="10" font-weight="600" fill="#3fb950" text-anchor="middle">MERGED</text>
    <text x="484" y="144" font-size="14" font-weight="600" fill="#e6edf3">eudiplo — correctly extract claims</text>
    <text x="484" y="163" font-size="14" font-weight="600" fill="#e6edf3">from all credential namespaces</text>
    <rect x="484" y="176" width="90" height="20" rx="10" fill="#1e2a3a"/>
    <text x="529" y="190" font-size="11" fill="#7fb3e0" text-anchor="middle">TypeScript</text>
    <rect x="580" y="176" width="62" height="20" rx="10" fill="#21262d"/>
    <text x="611" y="190" font-size="11" fill="#8b949e" text-anchor="middle">Bug Fix</text>
  </a>

  <!-- Card 3: OWASP -->
  <a href="https://github.com/SasanLabs/VulnerableApp/pull/522" target="_blank">
    <rect x="18" y="256" width="418" height="148" rx="8" fill="#161b22" stroke="#30363d" stroke-width="1"/>
    <rect x="18" y="256" width="4" height="148" rx="2" fill="#ef9f27"/>
    <text x="38" y="282" font-size="10" font-weight="600" fill="#6e7681" letter-spacing="1">OWASP VULNERABLEAPP</text>
    <rect x="360" y="267" width="68" height="18" rx="9" fill="#1a3a2a"/>
    <text x="394" y="280" font-size="10" font-weight="600" fill="#3fb950" text-anchor="middle">MERGED</text>
    <text x="38" y="308" font-size="14" font-weight="600" fill="#e6edf3">Add full Clickjacking vulnerability</text>
    <text x="38" y="327" font-size="14" font-weight="600" fill="#e6edf3">module — 7 progressive levels</text>
    <rect x="38" y="340" width="42" height="20" rx="10" fill="#2a1e0a"/>
    <text x="59" y="354" font-size="11" fill="#ba7517" text-anchor="middle">Java</text>
    <rect x="86" y="340" width="90" height="20" rx="10" fill="#1a2a3a"/>
    <text x="131" y="354" font-size="11" fill="#2b89ff" text-anchor="middle">New Feature</text>
  </a>

  <!-- Card 4: VictoriaMetrics -->
  <a href="https://github.com/VictoriaMetrics/VictoriaMetrics/pull/10638" target="_blank">
    <rect x="464" y="256" width="418" height="148" rx="8" fill="#161b22" stroke="#30363d" stroke-width="1"/>
    <rect x="464" y="256" width="4" height="148" rx="2" fill="#2b89ff"/>
    <text x="484" y="282" font-size="10" font-weight="600" fill="#6e7681" letter-spacing="1">VICTORIAMETRICS &#x2605; 12K</text>
    <rect x="806" y="267" width="68" height="18" rx="9" fill="#1a3a2a"/>
    <text x="840" y="280" font-size="10" font-weight="600" fill="#3fb950" text-anchor="middle">MERGED</text>
    <text x="484" y="308" font-size="14" font-weight="600" fill="#e6edf3">vmui — show metric names table</text>
    <text x="484" y="327" font-size="14" font-weight="600" fill="#e6edf3">when label is in focus</text>
    <rect x="484" y="340" width="90" height="20" rx="10" fill="#1e2a3a"/>
    <text x="529" y="354" font-size="11" fill="#7fb3e0" text-anchor="middle">TypeScript</text>
    <rect x="580" y="340" width="56" height="20" rx="10" fill="#1a2a3a"/>
    <text x="608" y="354" font-size="11" fill="#2b89ff" text-anchor="middle">UI Fix</text>
  </a>

  <!-- Card 5: Equinor -->
  <a href="https://github.com/equinor/ert/pull/13138" target="_blank">
    <rect x="18" y="420" width="418" height="148" rx="8" fill="#161b22" stroke="#30363d" stroke-width="1"/>
    <rect x="18" y="420" width="4" height="148" rx="2" fill="#1d9e75"/>
    <text x="38" y="446" font-size="10" font-weight="600" fill="#6e7681" letter-spacing="1">EQUINOR — ERT</text>
    <rect x="360" y="431" width="68" height="18" rx="9" fill="#1a3a2a"/>
    <text x="394" y="444" font-size="10" font-weight="600" fill="#3fb950" text-anchor="middle">MERGED</text>
    <text x="38" y="472" font-size="14" font-weight="600" fill="#e6edf3">Preserve active sub-tab when</text>
    <text x="38" y="491" font-size="14" font-weight="600" fill="#e6edf3">switching ensembles in Manage Experiments</text>
    <rect x="38" y="504" width="56" height="20" rx="10" fill="#0e2a1e"/>
    <text x="66" y="518" font-size="11" fill="#1d9e75" text-anchor="middle">Python</text>
    <rect x="100" y="504" width="52" height="20" rx="10" fill="#0e2a1e"/>
    <text x="126" y="518" font-size="11" fill="#5dcaa5" text-anchor="middle">PyQt6</text>
    <rect x="158" y="504" width="62" height="20" rx="10" fill="#21262d"/>
    <text x="189" y="518" font-size="11" fill="#8b949e" text-anchor="middle">Bug Fix</text>
  </a>

  <!-- Card 6: Databricks -->
  <a href="https://github.com/databrickslabs/dqx/pull/1063" target="_blank">
    <rect x="464" y="420" width="418" height="148" rx="8" fill="#161b22" stroke="#30363d" stroke-width="1"/>
    <rect x="464" y="420" width="4" height="148" rx="2" fill="#d85a30"/>
    <text x="484" y="446" font-size="10" font-weight="600" fill="#6e7681" letter-spacing="1">DATABRICKS LABS — DQX</text>
    <rect x="806" y="431" width="68" height="18" rx="9" fill="#1a3a2a"/>
    <text x="840" y="444" font-size="10" font-weight="600" fill="#3fb950" text-anchor="middle">MERGED</text>
    <text x="484" y="472" font-size="14" font-weight="600" fill="#e6edf3">Add skip_quietly option + skipped</text>
    <text x="484" y="491" font-size="14" font-weight="600" fill="#e6edf3">flag for data quality checks</text>
    <rect x="484" y="504" width="56" height="20" rx="10" fill="#0e2a1e"/>
    <text x="512" y="518" font-size="11" fill="#1d9e75" text-anchor="middle">Python</text>
    <rect x="546" y="504" width="62" height="20" rx="10" fill="#0e2a1e"/>
    <text x="577" y="518" font-size="11" fill="#5dcaa5" text-anchor="middle">PySpark</text>
    <rect x="614" y="504" width="90" height="20" rx="10" fill="#1a2a3a"/>
    <text x="659" y="518" font-size="11" fill="#2b89ff" text-anchor="middle">New Feature</text>
  </a>

</svg>
